<?xml version="1.0" encoding="UTF-8"?>
<svg width="120px" height="26px" viewBox="0 0 120 26" version="1.1" xmlns="http://www.w3.org/2000/svg" xmlns:xlink="http://www.w3.org/1999/xlink">
    <!-- Generator: Sketch 50.2 (55047) - http://www.bohemiancoding.com/sketch -->
    <title>Combined Shape@1.5x</title>
    <desc>Created with Sketch.</desc>
    <defs></defs>
    <g id="Aprooved" stroke="none" stroke-width="1" fill="none" fill-rule="evenodd">
        <g id="Desktop_1" transform="translate(-540.000000, -482.000000)" fill="#CFCFCF">
            <path d="M588.651784,501.50339 L587.613609,498.880227 L582.440377,498.880227 L581.458659,501.50339 L577.946978,501.50339 L583.55422,488.140662 L586.68874,488.140662 L592.239525,501.50339 L588.651784,501.50339 Z M585.064827,491.707976 L583.365639,496.294297 L586.726377,496.294297 L585.064827,491.707976 Z M600.508619,501.503351 L597.619921,496.199804 L596.524898,496.199804 L596.524898,501.503351 L593.353132,501.503351 L593.353132,488.140623 L598.450696,488.140623 C601.01869,488.140623 603.567472,489.122007 603.567472,492.179816 C603.567472,493.972487 602.510086,495.256437 600.792079,495.784362 L604.284941,501.503351 L600.508619,501.503351 Z M598.224086,490.745365 L596.506079,490.745365 L596.506079,493.85922 L598.035505,493.85922 C599.074072,493.85922 600.376495,493.595062 600.376495,492.236253 C600.376495,490.990711 599.186985,490.745365 598.224086,490.745365 Z M611.364996,490.896375 L611.364996,501.503469 L608.136774,501.503469 L608.136774,490.896375 L604.360844,490.896375 L604.360844,488.140741 L615.141318,488.140741 L615.141318,490.896375 L611.364996,490.896375 Z M616.613778,501.503429 L616.613778,488.140702 L625.600969,488.140702 L625.600969,490.877523 L619.728694,490.877523 L619.728694,493.387419 L625.279872,493.387419 L625.279872,495.973349 L619.728694,495.973349 L619.728694,498.747795 L625.940493,498.747795 L625.940493,501.503429 L616.613778,501.503429 Z M627.431811,501.503429 L627.431811,498.71017 L633.794553,490.877523 L627.583146,490.877523 L627.583146,488.140702 L637.834731,488.140702 L637.834731,490.726239 L631.321438,498.71017 L637.967247,498.71017 L637.967247,501.503429 L627.431811,501.503429 Z M640.06273,501.503586 L640.06273,488.140858 L643.310163,488.140858 L643.310163,501.503586 L640.06273,501.503586 Z M652.712389,501.86216 C648.539694,501.86216 645.443596,498.992867 645.443596,494.765158 C645.443596,490.481011 648.539694,487.782207 652.712389,487.782207 C656.90351,487.782207 660,490.481011 660,494.765158 C660,498.992867 656.90351,501.86216 652.712389,501.86216 Z M652.712389,490.688732 C650.446674,490.688732 648.898429,492.424966 648.898429,494.765158 C648.898429,497.180992 650.465885,498.917617 652.712389,498.917617 C654.958893,498.917617 656.544775,497.180992 656.544775,494.765158 C656.544775,492.424966 654.977711,490.688732 652.712389,490.688732 Z M558.425644,482 L568.432975,508 L540,508 L550.007724,482 L558.425644,482 Z M556.889945,507.2573 L558.053971,504.248873 L551.647711,487.94709 L549.391405,487.94709 L556.889945,507.2573 Z" id="Combined-Shape"></path>
        </g>
    </g>
</svg>